<svg width="1390" height="1266" viewBox="0 0 1390 1266" fill="none" xmlns="http://www.w3.org/2000/svg">
<line x1="0.540161" y1="797.173" x2="1025.87" y2="1.40859" stroke="#0056B3" stroke-opacity="0.2" stroke-width="1.5"/>
<line x1="10.351" y1="809.813" x2="1035.68" y2="14.0482" stroke="#0056B3" stroke-opacity="0.2" stroke-width="1.5"/>
<line x1="20.1613" y1="822.453" x2="1045.49" y2="26.6879" stroke="#0056B3" stroke-opacity="0.2" stroke-width="1.5"/>
<line x1="29.9698" y1="835.093" x2="1055.29" y2="39.328" stroke="#0056B3" stroke-opacity="0.2" stroke-width="1.5"/>
<line x1="39.7804" y1="847.732" x2="1065.11" y2="51.9677" stroke="#0056B3" stroke-opacity="0.2" stroke-width="1.5"/>
<line x1="49.5909" y1="860.373" x2="1074.92" y2="64.6078" stroke="#0056B3" stroke-opacity="0.2" stroke-width="1.5"/>
<line x1="59.4015" y1="873.012" x2="1084.73" y2="77.2475" stroke="#0056B3" stroke-opacity="0.2" stroke-width="1.5"/>
<line x1="69.2101" y1="885.652" x2="1094.54" y2="89.8876" stroke="#0056B3" stroke-opacity="0.2" stroke-width="1.5"/>
<line x1="79.0204" y1="898.292" x2="1104.35" y2="102.527" stroke="#0056B3" stroke-opacity="0.2" stroke-width="1.5"/>
<line x1="88.8312" y1="910.932" x2="1114.16" y2="115.167" stroke="#0056B3" stroke-opacity="0.2" stroke-width="1.5"/>
<line x1="98.6398" y1="923.572" x2="1123.96" y2="127.807" stroke="#0056B3" stroke-opacity="0.2" stroke-width="1.5"/>
<line x1="108.45" y1="936.211" x2="1133.78" y2="140.447" stroke="#0056B3" stroke-opacity="0.2" stroke-width="1.5"/>
<line x1="118.261" y1="948.852" x2="1143.59" y2="153.087" stroke="#0056B3" stroke-opacity="0.2" stroke-width="1.5"/>
<line x1="128.069" y1="961.491" x2="1153.39" y2="165.726" stroke="#0056B3" stroke-opacity="0.2" stroke-width="1.5"/>
<line x1="137.88" y1="974.131" x2="1163.21" y2="178.366" stroke="#0056B3" stroke-opacity="0.2" stroke-width="1.5"/>
<line x1="147.691" y1="986.771" x2="1173.02" y2="191.006" stroke="#0056B3" stroke-opacity="0.2" stroke-width="1.5"/>
<line x1="157.499" y1="999.411" x2="1182.82" y2="203.646" stroke="#0056B3" stroke-opacity="0.2" stroke-width="1.5"/>
<line x1="167.31" y1="1012.05" x2="1192.63" y2="216.286" stroke="#0056B3" stroke-opacity="0.2" stroke-width="1.5"/>
<line x1="177.12" y1="1024.69" x2="1202.45" y2="228.926" stroke="#0056B3" stroke-opacity="0.2" stroke-width="1.5"/>
<line x1="186.929" y1="1037.33" x2="1212.25" y2="241.565" stroke="#0056B3" stroke-opacity="0.2" stroke-width="1.5"/>
<line x1="196.739" y1="1049.97" x2="1222.06" y2="254.205" stroke="#0056B3" stroke-opacity="0.2" stroke-width="1.5"/>
<line x1="206.55" y1="1062.61" x2="1231.88" y2="266.845" stroke="#0056B3" stroke-opacity="0.2" stroke-width="1.5"/>
<line x1="216.359" y1="1075.25" x2="1241.68" y2="279.485" stroke="#0056B3" stroke-opacity="0.2" stroke-width="1.5"/>
<line x1="226.169" y1="1087.89" x2="1251.49" y2="292.125" stroke="#0056B3" stroke-opacity="0.2" stroke-width="1.5"/>
<line x1="235.98" y1="1100.53" x2="1261.3" y2="304.765" stroke="#0056B3" stroke-opacity="0.2" stroke-width="1.5"/>
<line x1="245.788" y1="1113.17" x2="1271.11" y2="317.405" stroke="#0056B3" stroke-opacity="0.2" stroke-width="1.5"/>
<line x1="255.599" y1="1125.81" x2="1280.92" y2="330.044" stroke="#0056B3" stroke-opacity="0.2" stroke-width="1.5"/>
<line x1="265.409" y1="1138.45" x2="1290.73" y2="342.684" stroke="#0056B3" stroke-opacity="0.2" stroke-width="1.5"/>
<line x1="275.218" y1="1151.09" x2="1300.54" y2="355.324" stroke="#0056B3" stroke-opacity="0.2" stroke-width="1.5"/>
<line x1="285.028" y1="1163.73" x2="1310.35" y2="367.964" stroke="#0056B3" stroke-opacity="0.2" stroke-width="1.5"/>
<line x1="294.839" y1="1176.37" x2="1320.16" y2="380.604" stroke="#0056B3" stroke-opacity="0.2" stroke-width="1.5"/>
<line x1="304.648" y1="1189.01" x2="1329.97" y2="393.244" stroke="#0056B3" stroke-opacity="0.2" stroke-width="1.5"/>
<line x1="314.458" y1="1201.65" x2="1339.78" y2="405.883" stroke="#0056B3" stroke-opacity="0.2" stroke-width="1.5"/>
<line x1="324.269" y1="1214.29" x2="1349.59" y2="418.523" stroke="#0056B3" stroke-opacity="0.2" stroke-width="1.5"/>
<line x1="334.077" y1="1226.93" x2="1359.4" y2="431.163" stroke="#0056B3" stroke-opacity="0.2" stroke-width="1.5"/>
<line x1="343.888" y1="1239.57" x2="1369.21" y2="443.803" stroke="#0056B3" stroke-opacity="0.2" stroke-width="1.5"/>
<line x1="353.698" y1="1252.21" x2="1379.02" y2="456.443" stroke="#0056B3" stroke-opacity="0.2" stroke-width="1.5"/>
<line x1="363.507" y1="1264.85" x2="1388.83" y2="469.083" stroke="#0056B3" stroke-opacity="0.2" stroke-width="1.5"/>
<line x1="5.44641" y1="803.493" x2="1030.77" y2="7.72841" stroke="#0056B3" stroke-opacity="0.2" stroke-width="1.5"/>
<line x1="15.255" y1="816.133" x2="1040.58" y2="20.3681" stroke="#0056B3" stroke-opacity="0.2" stroke-width="1.5"/>
<line x1="25.0656" y1="828.773" x2="1050.39" y2="33.0082" stroke="#0056B3" stroke-opacity="0.2" stroke-width="1.5"/>
<line x1="34.8761" y1="841.413" x2="1060.2" y2="45.6478" stroke="#0056B3" stroke-opacity="0.2" stroke-width="1.5"/>
<line x1="44.6847" y1="854.052" x2="1070.01" y2="58.2875" stroke="#0056B3" stroke-opacity="0.2" stroke-width="1.5"/>
<line x1="54.4952" y1="866.692" x2="1079.82" y2="70.9276" stroke="#0056B3" stroke-opacity="0.2" stroke-width="1.5"/>
<line x1="64.3058" y1="879.332" x2="1089.63" y2="83.5673" stroke="#0056B3" stroke-opacity="0.2" stroke-width="1.5"/>
<line x1="74.1163" y1="891.972" x2="1099.44" y2="96.2074" stroke="#0056B3" stroke-opacity="0.2" stroke-width="1.5"/>
<line x1="83.9249" y1="904.612" x2="1109.25" y2="108.847" stroke="#0056B3" stroke-opacity="0.2" stroke-width="1.5"/>
<line x1="93.7355" y1="917.252" x2="1119.06" y2="121.487" stroke="#0056B3" stroke-opacity="0.2" stroke-width="1.5"/>
<line x1="103.546" y1="929.892" x2="1128.87" y2="134.127" stroke="#0056B3" stroke-opacity="0.2" stroke-width="1.5"/>
<line x1="113.355" y1="942.531" x2="1138.68" y2="146.766" stroke="#0056B3" stroke-opacity="0.2" stroke-width="1.5"/>
<line x1="123.165" y1="955.171" x2="1148.49" y2="159.407" stroke="#0056B3" stroke-opacity="0.2" stroke-width="1.5"/>
<line x1="132.976" y1="967.811" x2="1158.3" y2="172.046" stroke="#0056B3" stroke-opacity="0.2" stroke-width="1.5"/>
<line x1="142.784" y1="980.451" x2="1168.11" y2="184.686" stroke="#0056B3" stroke-opacity="0.2" stroke-width="1.5"/>
<line x1="152.595" y1="993.091" x2="1177.92" y2="197.326" stroke="#0056B3" stroke-opacity="0.2" stroke-width="1.5"/>
<line x1="162.405" y1="1005.73" x2="1187.73" y2="209.966" stroke="#0056B3" stroke-opacity="0.2" stroke-width="1.5"/>
<line x1="172.214" y1="1018.37" x2="1197.54" y2="222.606" stroke="#0056B3" stroke-opacity="0.2" stroke-width="1.5"/>
<line x1="182.024" y1="1031.01" x2="1207.35" y2="235.245" stroke="#0056B3" stroke-opacity="0.2" stroke-width="1.5"/>
<line x1="191.835" y1="1043.65" x2="1217.16" y2="247.886" stroke="#0056B3" stroke-opacity="0.2" stroke-width="1.5"/>
<line x1="201.644" y1="1056.29" x2="1226.97" y2="260.525" stroke="#0056B3" stroke-opacity="0.2" stroke-width="1.5"/>
<line x1="211.454" y1="1068.93" x2="1236.78" y2="273.165" stroke="#0056B3" stroke-opacity="0.2" stroke-width="1.5"/>
<line x1="221.265" y1="1081.57" x2="1246.59" y2="285.805" stroke="#0056B3" stroke-opacity="0.2" stroke-width="1.5"/>
<line x1="231.073" y1="1094.21" x2="1256.4" y2="298.445" stroke="#0056B3" stroke-opacity="0.2" stroke-width="1.5"/>
<line x1="240.884" y1="1106.85" x2="1266.21" y2="311.085" stroke="#0056B3" stroke-opacity="0.2" stroke-width="1.5"/>
<line x1="250.694" y1="1119.49" x2="1276.02" y2="323.725" stroke="#0056B3" stroke-opacity="0.2" stroke-width="1.5"/>
<line x1="260.503" y1="1132.13" x2="1285.83" y2="336.364" stroke="#0056B3" stroke-opacity="0.2" stroke-width="1.5"/>
<line x1="270.314" y1="1144.77" x2="1295.64" y2="349.004" stroke="#0056B3" stroke-opacity="0.2" stroke-width="1.5"/>
<line x1="280.124" y1="1157.41" x2="1305.45" y2="361.644" stroke="#0056B3" stroke-opacity="0.2" stroke-width="1.5"/>
<line x1="289.933" y1="1170.05" x2="1315.26" y2="374.284" stroke="#0056B3" stroke-opacity="0.2" stroke-width="1.5"/>
<line x1="299.743" y1="1182.69" x2="1325.07" y2="386.924" stroke="#0056B3" stroke-opacity="0.2" stroke-width="1.5"/>
<line x1="309.554" y1="1195.33" x2="1334.88" y2="399.563" stroke="#0056B3" stroke-opacity="0.2" stroke-width="1.5"/>
<line x1="319.362" y1="1207.97" x2="1344.69" y2="412.204" stroke="#0056B3" stroke-opacity="0.2" stroke-width="1.5"/>
<line x1="329.173" y1="1220.61" x2="1354.5" y2="424.843" stroke="#0056B3" stroke-opacity="0.2" stroke-width="1.5"/>
<line x1="338.984" y1="1233.25" x2="1364.31" y2="437.483" stroke="#0056B3" stroke-opacity="0.2" stroke-width="1.5"/>
<line x1="348.792" y1="1245.89" x2="1374.12" y2="450.123" stroke="#0056B3" stroke-opacity="0.2" stroke-width="1.5"/>
<line x1="358.603" y1="1258.53" x2="1383.93" y2="462.763" stroke="#0056B3" stroke-opacity="0.2" stroke-width="1.5"/>
</svg>
