<svg width="800" height="800" viewBox="0 0 800 800" fill="none" xmlns="http://www.w3.org/2000/svg">
<path d="M400 319.689C444.356 319.69 480.311 355.335 480.311 399.3C480.31 443.265 444.356 478.909 400 478.909C355.644 478.909 319.69 443.265 319.689 399.3C319.689 355.335 355.644 319.689 400 319.689Z" stroke="white" stroke-opacity="0.1" stroke-width="0.5"/>
<path d="M399.913 329.496C438.805 329.496 470.33 360.75 470.33 399.299C470.33 437.848 438.805 469.102 399.913 469.102C361.021 469.102 329.496 437.848 329.496 399.299C329.496 360.75 361.021 329.496 399.913 329.496Z" stroke="white" stroke-opacity="0.1" stroke-width="0.5"/>
<circle cx="399.3" cy="399.3" r="89.4173" stroke="white" stroke-opacity="0.1" stroke-width="0.5"/>
<circle cx="399.299" cy="399.299" r="99.2246" stroke="white" stroke-opacity="0.1" stroke-width="0.5"/>
<circle cx="400.701" cy="399.3" r="110.433" stroke="white" stroke-opacity="0.1" stroke-width="0.5"/>
<circle cx="400.701" cy="399.299" r="120.24" stroke="white" stroke-opacity="0.1" stroke-width="0.5"/>
<circle cx="400.7" cy="399.3" r="130.048" stroke="white" stroke-opacity="0.1" stroke-width="0.5"/>
<circle cx="400.701" cy="399.3" r="139.855" stroke="white" stroke-opacity="0.1" stroke-width="0.5"/>
<circle cx="399.299" cy="399.299" r="149.662" stroke="white" stroke-opacity="0.1" stroke-width="0.5"/>
<circle cx="399.3" cy="399.3" r="159.47" stroke="white" stroke-opacity="0.1" stroke-width="0.5"/>
<circle cx="399.299" cy="399.301" r="169.277" stroke="white" stroke-opacity="0.1" stroke-width="0.5"/>
<circle cx="399.299" cy="399.299" r="179.085" stroke="white" stroke-opacity="0.1" stroke-width="0.5"/>
<circle cx="400.701" cy="399.301" r="190.293" stroke="white" stroke-opacity="0.1" stroke-width="0.5"/>
<circle cx="400.7" cy="399.299" r="200.1" stroke="white" stroke-opacity="0.1" stroke-width="0.5"/>
<circle cx="400.701" cy="399.298" r="209.908" stroke="white" stroke-opacity="0.1" stroke-width="0.5"/>
<circle cx="399.299" cy="399.301" r="219.715" stroke="white" stroke-opacity="0.1" stroke-width="0.5"/>
<circle cx="399.3" cy="399.3" r="229.522" stroke="white" stroke-opacity="0.1" stroke-width="0.5"/>
<circle cx="399.3" cy="399.298" r="239.33" stroke="white" stroke-opacity="0.1" stroke-width="0.5"/>
<circle cx="399.299" cy="399.299" r="249.137" stroke="white" stroke-opacity="0.1" stroke-width="0.5"/>
<circle cx="400.701" cy="399.299" r="260.345" stroke="white" stroke-opacity="0.1" stroke-width="0.5"/>
<circle cx="400.7" cy="399.299" r="270.153" stroke="white" stroke-opacity="0.1" stroke-width="0.5"/>
<circle cx="400.7" cy="399.3" r="279.96" stroke="white" stroke-opacity="0.1" stroke-width="0.5"/>
<circle cx="400.701" cy="399.299" r="289.768" stroke="white" stroke-opacity="0.1" stroke-width="0.5"/>
<circle cx="399.299" cy="399.299" r="299.575" stroke="white" stroke-opacity="0.1" stroke-width="0.5"/>
<circle cx="399.3" cy="399.3" r="309.382" stroke="white" stroke-opacity="0.1" stroke-width="0.5"/>
<circle cx="399.299" cy="399.299" r="319.19" stroke="white" stroke-opacity="0.1" stroke-width="0.5"/>
<circle cx="400.701" cy="399.3" r="330.398" stroke="white" stroke-opacity="0.1" stroke-width="0.5"/>
<circle cx="400.701" cy="399.299" r="340.205" stroke="white" stroke-opacity="0.1" stroke-width="0.5"/>
<circle cx="400.7" cy="399.3" r="350.013" stroke="white" stroke-opacity="0.1" stroke-width="0.5"/>
<circle cx="400.701" cy="399.301" r="359.82" stroke="white" stroke-opacity="0.1" stroke-width="0.5"/>
<circle cx="399.299" cy="399.299" r="369.627" stroke="white" stroke-opacity="0.1" stroke-width="0.5"/>
<circle cx="399.3" cy="399.298" r="379.435" stroke="white" stroke-opacity="0.1" stroke-width="0.5"/>
<circle cx="399.299" cy="399.301" r="389.242" stroke="white" stroke-opacity="0.1" stroke-width="0.5"/>
<circle cx="400" cy="400" r="399.75" stroke="white" stroke-opacity="0.1" stroke-width="0.5"/>
</svg>
