<svg width="16" height="16" viewBox="0 0 16 16" fill="none" xmlns="http://www.w3.org/2000/svg">
<path fill-rule="evenodd" clip-rule="evenodd" d="M7.19459 6.0297L1.87999 11.344L1.36278 13.1165C1.0783 14.0913 0.844737 14.9594 0.843761 15.0456C0.842786 15.1318 0.904642 15.265 0.981266 15.3417C1.11752 15.4779 1.21343 15.481 5.36698 15.481H9.61338L9.75541 15.3285C9.8335 15.2447 9.89745 15.1106 9.89745 15.0306C9.89745 14.9506 9.84862 14.8155 9.78899 14.7303L9.6806 14.5755L7.15941 14.5711C5.44326 14.5681 4.69388 14.545 4.81244 14.4987C4.90822 14.4614 7.37674 12.0422 10.298 9.12289C14.9528 4.47123 15.6094 3.78944 15.6094 3.60793C15.6094 3.43179 15.4085 3.19993 14.2665 2.05803C13.1245 0.9162 12.8926 0.715332 12.7164 0.715332C12.5349 0.715332 11.8517 1.37282 7.19459 6.0297ZM13.6078 2.71879C14.0574 3.16949 14.4252 3.57081 14.4252 3.61058C14.4252 3.65035 14.3147 3.79 14.1797 3.92087L13.9341 4.15886L13.0498 3.27459L12.1654 2.39039L12.4035 2.14488C12.5343 2.00983 12.675 1.89937 12.7159 1.89937C12.7569 1.89937 13.1583 2.26809 13.6078 2.71879ZM12.4056 3.95451L13.2747 4.82561L9.00889 9.09092L4.74306 13.3562L3.85506 12.4684L2.96707 11.5805L7.2157 7.33193C9.55243 4.99527 11.4806 3.0834 11.5004 3.0834C11.5203 3.0834 11.9276 3.47539 12.4056 3.95451ZM3.6883 13.8129C3.63613 13.8418 3.25315 13.9645 2.83722 14.0855C2.4213 14.2064 2.06653 14.2909 2.04884 14.2732C2.03115 14.2555 2.13438 13.8409 2.27815 13.3519L2.53965 12.4626L3.16141 13.1114C3.61419 13.584 3.75733 13.7746 3.6883 13.8129ZM11.7542 14.7029C11.6908 14.773 11.6389 14.9248 11.6389 15.0404C11.6389 15.1559 11.6962 15.3023 11.7663 15.3657C11.8752 15.4643 12.0818 15.481 13.1943 15.481C14.402 15.481 14.5048 15.471 14.6342 15.3417C14.7108 15.265 14.7735 15.1132 14.7735 15.0042C14.7735 14.8952 14.7162 14.7542 14.6461 14.6908C14.537 14.592 14.3289 14.5755 13.1941 14.5755C11.9993 14.5755 11.8582 14.588 11.7542 14.7029Z" fill="#1E1E26"/>
</svg>
