<svg width="16" height="16" viewBox="0 0 16 16" fill="none" xmlns="http://www.w3.org/2000/svg">
<path d="M10.2825 10.1267C7.44389 12.9653 4.22233 14.3459 3.08691 13.2105C1.95148 12.0751 3.33215 8.8535 6.17072 6.01492C9.00929 3.17634 12.2308 1.79566 13.3663 2.9311C14.5017 4.06653 13.121 7.2881 10.2825 10.1267Z" stroke="#28303F" stroke-width="0.922852"/>
<path d="M10.2824 6.01491C13.121 8.8535 14.5016 12.0751 13.3662 13.2105C12.2308 14.3459 9.00923 12.9653 6.17066 10.1267C3.33209 7.2881 1.95142 4.06652 3.08685 2.93109C4.22228 1.79566 7.44384 3.17633 10.2824 6.01491Z" stroke="#28303F" stroke-width="0.922852"/>
<path d="M9.45703 8.0708C9.45703 8.75037 8.90613 9.30127 8.22656 9.30127C7.54699 9.30127 6.99609 8.75037 6.99609 8.0708C6.99609 7.39123 7.54699 6.84033 8.22656 6.84033C8.90613 6.84033 9.45703 7.39123 9.45703 8.0708Z" stroke="#28303F" stroke-width="0.922852"/>
</svg>
